<svg width="140" height="25" viewBox="0 0 140 25" fill="none" xmlns="http://www.w3.org/2000/svg">
<path d="M31.6147 0.800354H32.7686V24.8004H31.6147V0.800354Z" fill="#e4e5ea"/>
<path d="M126.311 20.5052L132.625 11.9692V13.2232L126.685 5.10516H128.555L133.549 11.8812L132.823 11.9032L137.817 5.10516H139.577L133.703 13.1132V11.9692L139.995 20.5052H138.103L132.779 13.2672H133.461L128.181 20.5052H126.311Z" fill="#e4e5ea"/>
<path d="M114.054 11.9912H122.194V13.3772H114.054V11.9912ZM114.23 19.0972H123.492V20.5052H112.602V5.10516H123.162V6.51316H114.23V19.0972Z" fill="#e4e5ea"/>
<path d="M98.3279 20.5052V5.10516H99.9559V19.0972H108.579V20.5052H98.3279Z" fill="#e4e5ea"/>
<path d="M80.4227 20.5052V5.10516H87.0664C88.7824 5.10516 90.1096 5.44983 91.0482 6.13916C92.0015 6.8285 92.4782 7.80383 92.4782 9.06516C92.4782 9.90116 92.2802 10.6052 91.8842 11.1772C91.5029 11.7492 90.9749 12.1818 90.3003 12.4752C89.6403 12.7685 88.9143 12.9152 88.1224 12.9152L88.4964 12.3872C89.479 12.3872 90.3223 12.5412 91.0262 12.8492C91.7449 13.1425 92.3022 13.5898 92.6982 14.1912C93.0942 14.7778 93.2922 15.5112 93.2922 16.3912C93.2922 17.6965 92.8082 18.7085 91.8402 19.4272C90.8869 20.1458 89.4423 20.5052 87.5064 20.5052H80.4227ZM82.0506 19.1632H87.4844C88.8337 19.1632 89.8676 18.9358 90.5863 18.4812C91.3049 18.0118 91.6642 17.2712 91.6642 16.2592C91.6642 15.2618 91.3049 14.5358 90.5863 14.0812C89.8676 13.6118 88.8337 13.3772 87.4844 13.3772H81.8747V12.0352H86.9564C88.1884 12.0352 89.1417 11.8005 89.8163 11.3312C90.5056 10.8618 90.8503 10.1652 90.8503 9.24116C90.8503 8.3025 90.5056 7.60583 89.8163 7.15116C89.1417 6.68183 88.1884 6.44716 86.9564 6.44716H82.0506V19.1632Z" fill="#e4e5ea"/>
<path d="M65.8388 11.9912H73.9784V13.3772H65.8388V11.9912ZM66.0147 19.0972H75.2763V20.5052H64.3868V5.10516H74.9463V6.51316H66.0147V19.0972Z" fill="#e4e5ea"/>
<path fill-rule="evenodd" clip-rule="evenodd" d="M39.3374 5.10516L44.5292 20.5052H46.2231L51.5469 5.10516H50.0509L45.4596 18.3762L41.0093 5.10516H39.3374ZM53.2181 20.2842L53.1435 20.5052H54.9807L60.1725 5.10516H58.6105L53.2181 20.2842Z" fill="#e4e5ea"/>
<path fill-rule="evenodd" clip-rule="evenodd" d="M23.8957 1.80035H0.994584V7.30658H23.8957V1.80035ZM23.8957 18.2941H0.994584V23.8004H23.8957V18.2941ZM24.8956 0.800354V8.30658H-0.00537109V0.800354H24.8956ZM-0.00537109 12.2234L24.8956 12.2234V13.3773L-0.00537109 13.3773V12.2234ZM-0.00537109 17.2941V24.8004H24.8956V17.2941H-0.00537109Z" fill="#e4e5ea"/>
</svg>
