<svg width="20" height="20" viewBox="0 0 20 20" fill="none" xmlns="http://www.w3.org/2000/svg">
<path d="M10.7742 2.39999C10.4891 2.39999 10.2581 2.61952 10.2581 2.89032C10.2581 3.16111 10.4891 3.38064 10.7742 3.38064C14.1948 3.38064 16.9677 6.01494 16.9677 9.26451C16.9677 9.53531 17.1988 9.75483 17.4839 9.75483C17.7689 9.75483 18 9.53531 18 9.26451C18 5.47334 14.7649 2.39999 10.7742 2.39999Z" fill="#E4E5EA"/>
<path d="M4.1673 3.99965C4.45986 3.85679 4.97514 3.78439 5.27048 4.04578C5.63965 4.37252 6.20861 4.94529 6.59951 5.44502C6.9904 5.94475 7.53764 6.70588 7.61582 6.87501C7.694 7.04415 7.78086 7.64383 7.38997 8.00517C7.07726 8.29425 6.669 8.55103 6.50395 8.64329C6.35049 8.77143 6.09917 9.14763 6.32154 9.62737C6.59951 10.2271 7.19887 11.4033 8.23256 12.2798C9.26625 13.1562 10.3607 13.6175 11.047 13.7636C11.0906 13.7636 11.1467 13.7735 11.2116 13.785C11.4441 13.826 11.7906 13.8872 12.0894 13.5868C12.3951 13.2792 12.6742 12.9563 12.7756 12.8333C12.9348 12.6693 13.3975 12.3905 13.9743 12.5873C14.6953 12.8333 15.5205 13.3715 15.894 13.6252C16.1928 13.8282 16.8582 14.3095 17.1536 14.5247C17.3331 14.6554 17.6331 15.0444 17.3968 15.5549C17.1014 16.1931 15.8419 17.6 14.7127 17.6C14.2957 17.6 10.2652 16.516 6.70374 13.4561C4.42881 11.5015 2.47054 8.11025 2.13466 6.96727C2.00726 6.69562 1.8567 6.02624 2.27365 5.5219C2.6906 5.01756 3.15968 4.49169 4.1673 3.99965Z" fill="#E4E5EA"/>
<path d="M10.7742 6.32257C10.4891 6.32257 10.2581 6.5421 10.2581 6.8129C10.2581 7.08369 10.4891 7.30322 10.7742 7.30322C11.9144 7.30322 12.8387 8.18132 12.8387 9.26451C12.8387 9.53531 13.0698 9.75483 13.3548 9.75483C13.6399 9.75483 13.871 9.53531 13.871 9.26451C13.871 7.63972 12.4845 6.32257 10.7742 6.32257Z" fill="#E4E5EA"/>
<path d="M10.2581 4.85161C10.2581 4.58081 10.4891 4.36128 10.7742 4.36128C13.6247 4.36128 15.9355 6.55653 15.9355 9.26451C15.9355 9.53531 15.7044 9.75483 15.4194 9.75483C15.1343 9.75483 14.9032 9.53531 14.9032 9.26451C14.9032 7.09813 13.0546 5.34193 10.7742 5.34193C10.4891 5.34193 10.2581 5.1224 10.2581 4.85161Z" fill="#E4E5EA"/>
</svg>
